HIERARCHY
ROOT Pelvis
{
	OFFSET 0.000000 0.000000 0.000000
	CHANNELS 6 Xposition Yposition Zposition Xrotation Yrotation Zrotation
	JOINT LeftUpLeg_virtual
	{
		OFFSET 0.000000 0.000000 0.000000
		CHANNELS 3 Xrotation Yrotation Zrotation
		JOINT LeftUpLeg
		{
			OFFSET 18.735201 -5.666702 -4.541200
			CHANNELS 3 Xrotation Yrotation Zrotation
			JOINT LeftLeg
			{
				OFFSET -0.021200 -31.938179 0.493100
				CHANNELS 3 Xrotation Yrotation Zrotation
				JOINT LeftFoot
				{
					OFFSET 0.021200 -31.938179 -4.336299
					CHANNELS 3 Xrotation Yrotation Zrotation
					JOINT LeftToeBase
					{
						OFFSET 0.943001 -26.722000 15.023500
						CHANNELS 3 Xrotation Yrotation Zrotation
						End Site
						{
							OFFSET 0 0 0
						}
					}
				}
			}
		}
	}
	JOINT RightUpLeg_virtual
	{
		OFFSET 0.000000 0.000000 0.000000
		CHANNELS 3 Xrotation Yrotation Zrotation
		JOINT RightUpLeg
		{
			OFFSET -18.735201 -5.666702 -4.541200
			CHANNELS 3 Xrotation Yrotation Zrotation
			JOINT RightLeg
			{
				OFFSET 0.018946 -31.938133 0.493100
				CHANNELS 3 Xrotation Yrotation Zrotation
				JOINT RightFoot
				{
					OFFSET -0.018946 -31.938126 -4.336299
					CHANNELS 3 Xrotation Yrotation Zrotation
					JOINT RightToeBase
					{
						OFFSET -0.943001 -26.722004 15.023500
						CHANNELS 3 Xrotation Yrotation Zrotation
						End Site
						{
							OFFSET 0 0 0
						}
					}
				}
			}
		}
	}
	JOINT Hips_virtual
	{
		OFFSET 0.000000 0.000000 0.000000
		CHANNELS 3 Xrotation Yrotation Zrotation
		JOINT Hips
		{
			OFFSET -0.000000 -0.000000 -0.000000
			CHANNELS 3 Xrotation Yrotation Zrotation
			JOINT Spine
			{
				OFFSET 0.000000 10.199997 -0.299500
				CHANNELS 3 Xrotation Yrotation Zrotation
				JOINT Spine1
				{
					OFFSET 0.000000 11.900002 -1.516600
					CHANNELS 3 Xrotation Yrotation Zrotation
					JOINT Spine2
					{
						OFFSET 0.000000 13.600006 -2.842500
						CHANNELS 3 Xrotation Yrotation Zrotation
						JOINT Neck_virtual
						{
							OFFSET 0.000000 0.000000 0.000000
							CHANNELS 3 Xrotation Yrotation Zrotation
							JOINT Neck
							{
								OFFSET 0.000000 9.624100 -2.890100
								CHANNELS 3 Xrotation Yrotation Zrotation
								JOINT Head
								{
									OFFSET 0.000000 14.068802 -1.351900
									CHANNELS 3 Xrotation Yrotation Zrotation
									End Site
									{
										OFFSET 0 0 0
									}
								}
							}
						}
						JOINT LeftShoulder_virtual
						{
							OFFSET 0.000000 0.000000 0.000000
							CHANNELS 3 Xrotation Yrotation Zrotation
							JOINT LeftShoulder
							{
								OFFSET 15.263000 10.923401 -0.547700
								CHANNELS 3 Xrotation Yrotation Zrotation
								JOINT LeftArm
								{
									OFFSET 25.438599 -2.830597 -13.032500
									CHANNELS 3 Xrotation Yrotation Zrotation
									JOINT LeftForeArm
									{
										OFFSET 29.960503 0.000000 0.000000
										CHANNELS 3 Xrotation Yrotation Zrotation
										JOINT LeftHand
										{
											OFFSET 27.849251 0.000000 0.000000
											CHANNELS 3 Xrotation Yrotation Zrotation
											End Site
											{
												OFFSET 0 0 0
											}
										}
									}
								}
							}
						}
						JOINT RightShoulder_virtual
						{
							OFFSET 0.000000 0.000000 0.000000
							CHANNELS 3 Xrotation Yrotation Zrotation
							JOINT RightShoulder
							{
								OFFSET -15.263000 10.923401 -0.547700
								CHANNELS 3 Xrotation Yrotation Zrotation
								JOINT RightArm
								{
									OFFSET -25.438599 -2.830597 -13.032500
									CHANNELS 3 Xrotation Yrotation Zrotation
									JOINT RightForeArm
									{
										OFFSET -29.960503 0.000000 0.000000
										CHANNELS 3 Xrotation Yrotation Zrotation
										JOINT RightHand
										{
											OFFSET -27.849251 0.000000 0.000000
											CHANNELS 3 Xrotation Yrotation Zrotation
											End Site
											{
												OFFSET 0 0 0
											}
										}
									}
								}
							}
						}
					}
				}
			}
		}
	}
}
MOTION
Frames: 10
Frame Time: 0.03333333
15.638515 81.475983 66.231712 0.000000 0.000000 0.000000 163.479444 47.356085 -174.145140 -59.933346 -10.488725 18.181484 28.385196 -43.054565 3.661454 6.628018 -1.598564 -26.120967 0.000000 0.000000 0.000000 163.479444 47.356085 -174.145140 -24.482960 -26.125655 -26.830499 47.600654 -6.448061 6.932251 -23.520245 -7.742489 23.057884 0.000000 0.000000 0.000000 163.479444 47.356085 -174.145140 0.000000 0.000001 0.000000 12.737064 3.661394 -3.211067 11.924115 11.118073 -15.175191 0.000000 0.000000 0.000000 1.101638 14.665741 -10.905802 2.251812 1.405448 1.873075 0.000000 0.000000 0.000000 1.101638 14.665741 -10.905802 0.441630 12.913607 -8.023904 24.289888 30.045148 -67.066672 -59.876642 -28.113477 -29.309523 0.000000 0.000000 0.000000 1.101638 14.665741 -10.905802 1.205996 17.292719 2.836854 -64.233373 30.995525 72.958066 51.591134 12.758243 4.090915 0.000000 0.000000 0.000000 
15.495815 81.717163 66.103897 0.000000 0.000000 0.000000 163.105997 49.597668 -173.443119 -59.386999 -10.573555 19.146663 30.512255 -41.533595 3.911709 5.285988 -1.146868 -25.232150 0.000000 0.000000 0.000000 163.105997 49.597668 -173.443119 -25.974615 -25.556493 -27.865498 47.214082 -4.382057 7.164098 -22.735398 -7.244270 21.814700 0.000000 0.000000 0.000000 163.105997 49.597668 -173.443119 0.000000 -0.000002 0.000001 12.598754 3.579007 -3.183880 11.663245 11.031805 -15.073990 0.000000 0.000000 0.000000 0.830129 14.573225 -10.818433 2.299856 1.410408 1.899397 0.000000 0.000000 0.000000 0.830129 14.573225 -10.818433 0.560208 12.569471 -8.809949 21.591041 29.149629 -64.927198 -59.006954 -28.841700 -29.005355 0.000000 0.000000 0.000000 0.830129 14.573225 -10.818433 1.220474 16.569694 3.011178 -64.817867 30.100056 76.400884 53.142956 8.465454 3.719453 0.000000 0.000000 0.000000 
15.320271 81.885277 65.965881 0.000000 0.000000 0.000000 162.554022 51.932599 -172.606475 -58.914691 -10.795863 20.076885 32.873977 -39.866363 4.202860 3.786233 -0.651592 -24.384503 0.000000 0.000000 0.000000 162.554022 51.932599 -172.606475 -27.651886 -24.844606 -28.845422 46.999358 -2.492268 7.358455 -21.885277 -6.601289 20.716088 0.000000 0.000000 0.000000 162.554022 51.932599 -172.606475 0.000000 0.000004 0.000000 12.423054 3.472958 -3.156880 11.349576 10.896045 -14.949131 0.000000 0.000000 0.000000 0.503252 14.434862 -10.712579 2.354687 1.423623 1.926572 0.000000 0.000000 0.000000 0.503252 14.434862 -10.712579 0.690149 12.814777 -9.700469 17.839874 28.067228 -61.512001 -57.352183 -29.386882 -29.329526 0.000000 0.000000 0.000000 0.503252 14.434862 -10.712579 1.222237 16.439876 2.931223 -60.208281 28.479549 76.380797 52.535438 10.352245 -2.661517 0.000000 0.000000 0.000000 
15.175377 82.016830 65.761932 0.000000 0.000000 0.000000 161.708594 54.503523 -171.502389 -58.546879 -10.945753 21.232630 35.509716 -38.195077 4.216452 2.041588 -0.134407 -23.304711 0.000000 0.000000 0.000000 161.708594 54.503523 -171.502389 -29.336670 -23.750933 -29.529350 46.738783 -0.632660 7.477905 -20.896416 -6.159373 19.706487 0.000000 0.000000 0.000000 161.708594 54.503523 -171.502389 0.000000 -0.000001 0.000000 12.216409 3.350145 -3.160225 10.965558 10.728930 -14.870421 0.000000 0.000000 0.000000 0.112396 14.271532 -10.661714 2.392754 1.442735 1.946076 0.000000 0.000000 0.000000 0.112396 14.271532 -10.661714 0.813247 12.488584 -10.557388 13.645991 26.593009 -57.689164 -53.947074 -30.883814 -28.900853 0.000000 0.000000 0.000000 0.112396 14.271532 -10.661714 1.273178 15.702842 2.792933 -54.445641 25.923081 69.909862 52.735928 24.416308 -3.568419 0.000000 0.000000 0.000000 
15.006191 82.094498 65.536858 0.000000 0.000000 0.000000 160.677045 57.053888 -170.177428 -58.143795 -11.044379 22.346654 38.017939 -36.746838 4.076443 0.305676 0.570156 -22.236016 0.000000 0.000000 0.000000 160.677045 57.053888 -170.177428 -31.032712 -22.338984 -29.835182 46.679883 0.750389 7.179879 -19.877027 -5.824343 19.134994 0.000000 0.000000 0.000000 160.677045 57.053888 -170.177428 0.000001 0.000000 0.000000 12.021130 3.206229 -3.188890 10.585798 10.507764 -14.834073 0.000000 0.000000 0.000000 -0.267556 14.060038 -10.668942 2.374382 1.482937 1.954970 0.000000 0.000000 0.000000 -0.267556 14.060038 -10.668942 0.941476 11.960435 -11.513457 9.077660 24.897646 -53.138909 -50.551265 -31.508038 -28.502559 0.000000 0.000000 0.000000 -0.267556 14.060038 -10.668942 1.317916 15.304432 2.430718 -50.414641 23.549254 65.376276 52.195209 34.352969 -3.495250 0.000000 0.000000 0.000000 
14.810869 82.127426 65.236641 0.000000 0.000000 0.000000 159.434906 59.661552 -168.580448 -57.622133 -11.170845 23.279841 40.663463 -35.255787 4.014953 -1.587709 1.447658 -21.199487 0.000000 0.000000 0.000000 159.434906 59.661552 -168.580448 -32.684825 -20.569776 -29.836992 46.716967 1.815806 6.563276 -18.777013 -5.626525 18.936880 0.000000 0.000000 0.000000 159.434906 59.661552 -168.580448 0.000000 -0.000001 0.000000 11.852986 3.003582 -3.253947 10.229992 10.162645 -14.847125 0.000000 0.000000 0.000000 -0.614445 13.733330 -10.758702 2.306650 1.534173 2.031504 0.000000 0.000000 0.000000 -0.614445 13.733330 -10.758702 1.071480 10.981004 -12.641557 4.703255 23.263372 -48.179424 -46.562520 -32.888461 -28.000982 0.000000 0.000000 0.000000 -0.614445 13.733330 -10.758702 1.324149 15.108466 2.202004 -47.206190 21.442358 61.337325 50.425166 43.036605 -2.171570 0.000000 0.000000 0.000000 
14.607565 82.140442 64.778824 0.000000 0.000000 0.000000 158.388945 62.578596 -167.129087 -56.697855 -11.415247 24.048714 43.980855 -34.080448 4.139604 -3.973153 3.087675 -19.993938 0.000000 0.000000 0.000000 158.388945 62.578596 -167.129087 -33.935228 -18.487819 -29.468435 46.599748 2.678667 5.636002 -17.455404 -5.490603 19.121530 0.000000 0.000000 0.000000 158.388945 62.578596 -167.129087 0.000000 -0.000001 0.000000 11.773156 2.775186 -3.297324 10.056181 9.762016 -14.778550 0.000000 0.000000 0.000000 -0.783972 13.340912 -10.776435 2.195570 1.607260 2.074679 0.000000 0.000000 0.000000 -0.783972 13.340912 -10.776435 1.153993 9.427762 -13.718464 0.210439 21.092772 -43.071426 -42.901914 -33.225626 -27.835471 0.000000 0.000000 0.000000 -0.783972 13.340912 -10.776435 1.351323 14.476999 1.736801 -44.582619 19.672318 57.650184 49.210215 51.068908 -0.850757 0.000000 0.000000 0.000000 
14.415421 82.117126 64.237999 0.000000 0.000000 0.000000 157.379088 65.352029 -165.836324 -55.635251 -11.824456 24.582308 47.314800 -33.090136 4.352231 -6.441827 4.976880 -18.843800 0.000000 0.000000 0.000000 157.379088 65.352029 -165.836324 -34.754550 -16.459673 -28.767285 46.218046 3.332340 4.540328 -16.093152 -5.371374 19.631121 0.000000 0.000000 0.000000 157.379088 65.352029 -165.836324 0.000000 -0.000001 0.000000 11.766940 2.467374 -3.329228 10.011894 9.195028 -14.668209 0.000000 0.000000 0.000000 -0.814487 12.775102 -10.790358 1.922442 1.671607 2.037061 0.000000 0.000000 0.000000 -0.814487 12.775102 -10.790358 1.202619 7.891122 -14.786736 -3.782343 19.006857 -37.941107 -39.607598 -33.310689 -28.196838 0.000000 0.000000 0.000000 -0.814487 12.775102 -10.790358 1.346357 13.894983 1.338369 -42.651318 18.252087 54.400838 47.636724 58.063602 0.413406 0.000000 0.000000 0.000000 
14.185085 82.084595 63.564655 0.000000 0.000000 0.000000 156.161443 67.964849 -164.467103 -54.597687 -12.287731 24.825707 50.556920 -31.684117 4.681450 -8.882283 6.494496 -17.816827 0.000000 0.000000 0.000000 156.161443 67.964849 -164.467103 -35.291249 -14.687253 -28.003468 45.516305 3.847921 3.473307 -14.790478 -5.282371 20.329699 0.000000 0.000000 0.000000 156.161443 67.964849 -164.467103 0.000000 0.000000 -0.000001 11.764981 2.098984 -3.310875 9.937754 8.510125 -14.450599 0.000000 0.000000 0.000000 -0.869858 12.062806 -10.728065 1.544072 1.722945 1.956466 0.000000 0.000000 0.000000 -0.869858 12.062806 -10.728065 1.155975 6.315783 -15.132936 -7.593523 16.141354 -33.678215 -32.243240 -33.569738 -25.957104 0.000000 0.000000 0.000000 -0.869858 12.062806 -10.728065 1.311872 13.445016 0.927171 -40.886732 17.083360 51.182897 44.483154 64.213211 3.029669 0.000000 0.000000 0.000000 
13.921589 82.067841 62.673344 0.000000 0.000000 0.000000 154.528276 70.670711 -162.679410 -53.470173 -12.574174 24.788334 53.801619 -29.409756 5.113086 -11.431717 7.369941 -16.902005 0.000000 0.000000 0.000000 154.528276 70.670711 -162.679410 -35.686611 -12.987670 -27.218603 44.298930 4.556064 2.205322 -13.268698 -5.176142 21.290070 0.000000 0.000000 0.000000 154.528276 70.670711 -162.679410 0.000000 0.000002 -0.000001 11.788356 1.658264 -3.325145 9.913034 7.662640 -14.310631 0.000000 0.000000 0.000000 -0.857367 11.201515 -10.776186 1.053705 1.737486 1.924034 0.000000 0.000000 0.000000 -0.857367 11.201515 -10.776186 1.040640 4.643209 -14.647443 -11.365991 12.556726 -29.944912 -24.361562 -33.733495 -22.907539 0.000000 0.000000 0.000000 -0.857367 11.201515 -10.776186 1.281191 12.895623 0.941405 -38.988994 15.677152 47.455383 40.479164 70.754141 6.254687 0.000000 0.000000 0.000000 
